PathFileType	4	(X/Y/Z)	pose_F01_0-95.trc
DataRate	CameraRate	NumFrames	NumMarkers	Units	OrigDataRate	OrigDataStartFrame	OrigNumFrames
30	30	6	21	m	30	47	95
Frame#	Time	CHip			RHip			RKnee			RAnkle			RBigToe			RSmallToe			RHeel			LHip			LKnee			LAnkle			LBigToe			LSmallToe			LHeel			Neck			Nose			RShoulder			RElbow			RWrist			LShoulder			LElbow			LWrist			
		X1	Y1	Z1	X2	Y2	Z2	X3	Y3	Z3	X4	Y4	Z4	X5	Y5	Z5	X6	Y6	Z6	X7	Y7	Z7	X8	Y8	Z8	X9	Y9	Z9	X10	Y10	Z10	X11	Y11	Z11	X12	Y12	Z12	X13	Y13	Z13	X14	Y14	Z14	X15	Y15	Z15	X16	Y16	Z16	X17	Y17	Z17	X18	Y18	Z18	X19	Y19	Z19	X20	Y20	Z20	X21	Y21	Z21	
47	1.5666666666666667	-0.27981961164348534	1.8841660482465918	-0.5492136106747706	-0.29004493280369753	1.8821179223218067	-0.4862285131954424	-0.2922641876398009	1.75166308826478	-0.4498748404703227	-0.3256976163929646	1.6501531989220146	-0.5024685707911584	-0.3179318790989927	1.61906448484189	-0.4849062045933865	-0.32872567168242955	1.6242539627608854	-0.46079619397842975	-0.3298825778004599	1.6518476174288304	-0.529304389852488	-0.26342962897008926	1.8863122033176045	-0.6134518288860019	-0.2619665378953746	1.7567937384104166	-0.5713461234583589	-0.27118388989216236	1.6182994564610922	-0.5877484261378323							-0.274741618302188	1.6111592653459756	-0.5965265814077707	-0.27304860612903065	2.038208083321895	-0.5924554910388641	-0.25786662878679617	2.0989366055310748	-0.5780864435310006	-0.2945489855493786	2.03532885478854	-0.5059962645454034	-0.31934149302545073	2.0154335187765	-0.4018719366176581	-0.3376037443756894	2.012151829580535	-0.3349852297878956	-0.24982422695163012	2.0422101866850144	-0.6816469689471711	-0.2206334915024348	2.056389452656853	-0.792681219173813	-0.19997408098336977	2.1069709382590185	-0.8312586679296315
48	1.6	-0.2773499007319792	1.8956603436297916	-0.5471900350270341	-0.29045628519996164	1.891586508482108	-0.4849009152507513	-0.2874432784712824	1.769671961886211	-0.4519920858376334	-0.3203083381386331	1.6930756418008508	-0.4991249522223186	-0.3179318790989927	1.61906448484189	-0.4849062045933865	-0.32872567168242955	1.6242539627608854	-0.46079619397842975	-0.32254683365857134	1.693098490187398	-0.5278549439976197	-0.2618130250609867	1.8988256428875574	-0.614524836911108	-0.2617301038527075	1.7695774018777617	-0.5808114622177113	-0.27118388989216236	1.6182994564610922	-0.5877484261378323							-0.274741618302188	1.6111592653459756	-0.5965265814077707	-0.2760838638980924	2.054117141054103	-0.5969216095517157	-0.2573640603879962	2.108507528253033	-0.5774681191276662	-0.2956944506838838	2.048257269203757	-0.5043145549066707	-0.3261919288358824	2.0590879113437555	-0.39479683101699836	-0.34416798007264005	2.0484754865542043	-0.3167034493642292	-0.25443493290065355	2.062042944815553	-0.6920978796990476	-0.20903899695985861	2.1102575840252427	-0.8282664892580214	-0.1906583463685205	2.1747250331251538	-0.8837335565463736
49	1.6333333333333333	-0.27380032796281134	1.8941755752666887	-0.554189561404158	-0.2872346332676747	1.8931446024096696	-0.49235455054207683	-0.2874432784712824	1.769671961886211	-0.4519920858376334	-0.3275820947972548	1.7276302326260575	-0.5305700017368923	-0.3179318790989927	1.61906448484189	-0.4849062045933865	-0.32872567168242955	1.6242539627608854	-0.46079619397842975	-0.32254683365857134	1.693098490187398	-0.5278549439976197	-0.25928368878672015	1.8958284568299788	-0.6159855709463791	-0.2637769772488644	1.762763229002231	-0.5811377090667065	-0.27118388989216236	1.6182994564610922	-0.5877484261378323							-0.274741618302188	1.6111592653459756	-0.5965265814077707	-0.2744321762513462	2.0519804620937774	-0.5995783466688461	-0.2600350609418772	2.1072412657644306	-0.5761951001741848	-0.2982037926527422	2.0445341087824436	-0.5104791518796832	-0.3244262691830931	2.0576588292111784	-0.3963443399732826	-0.3507322157695906	2.0847991435278734	-0.29842166894056277	-0.25107182707302866	2.0594014434604455	-0.6893149144032036	-0.2107413292394322	2.107562600888121	-0.8176069053413338	-0.17433748598178744	2.1774957724043706	-0.88111876418039
50	1.6666666666666667	-0.2741748683924029	1.8645633284449223	-0.5592353373984499	-0.28923389384057757	1.8707045410338328	-0.49570688790840045	-0.2874432784712824	1.769671961886211	-0.4519920858376334	-0.32413322840477254	1.6980131053119478	-0.5181154793876184	-0.3179318790989927	1.61906448484189	-0.4849062045933865	-0.32872567168242955	1.6242539627608854	-0.46079619397842975	-0.32254683365857134	1.693098490187398	-0.5278549439976197	-0.2600095704460653	1.8710615854348138	-0.6172234140027714	-0.26582385064502123	1.7559490561267004	-0.5814639559157015	-0.27118388989216236	1.6182994564610922	-0.5877484261378323							-0.274741618302188	1.6111592653459756	-0.5965265814077707	-0.27698985021440303	2.023120642249266	-0.600965615514735	-0.2607551741465627	2.0832009646165823	-0.5724657594140747	-0.30184932992817415	2.0173258022476848	-0.5152692358749891	-0.32767136089266063	2.013187213626024	-0.39475084725945	-0.34901794231879346	2.042763819227627	-0.2993648049759304	-0.25150813585779686	2.0291714230605304	-0.684127442632082	-0.2110509616731822	2.06163613623327	-0.8152117414843214	-0.19121743093781435	2.1308248703019337	-0.8419021968511078
51	1.7	-0.27454940882199447	1.8349510816231562	-0.5642811133927418	-0.2901407223413972	1.8332367898569382	-0.4998977739792343	-0.2874432784712824	1.769671961886211	-0.4519920858376334	-0.31521300097282745	1.6342216108244159	-0.4984131715263855	-0.3179318790989927	1.61906448484189	-0.4849062045933865	-0.32872567168242955	1.6242539627608854	-0.46079619397842975	-0.3203028429653124	1.6262374196862157	-0.509956452547329	-0.2607354521054105	1.8462947140396486	-0.6184612570591637	-0.2678707240411781	1.7491348832511697	-0.5817902027646967	-0.27118388989216236	1.6182994564610922	-0.5877484261378323							-0.274741618302188	1.6111592653459756	-0.5965265814077707	-0.27603599292338504	1.9949539932646394	-0.6003134429586214	-0.2648252374872359	2.05396383997955	-0.5699918188385148	-0.2968939220911528	1.985303869514838	-0.5093045453679644	-0.33091645260222824	1.9687155980408688	-0.3931573545456173	-0.34730366886799624	2.0007284949273805	-0.300307941011298	-0.2515188242014853	2.003422644074074	-0.6877754186563748	-0.21136059410693223	2.0157096715784193	-0.812816577627309	-0.20809737589384122	2.0841539681994967	-0.8026856295218254
52	1.7333333333333334	-0.27509347874924234	1.8207532300083007	-0.562702228335868	-0.2905467355230842	1.818362090858596	-0.4980723072291721	-0.2874432784712824	1.769671961886211	-0.4519920858376334	-0.31521300097282745	1.6342216108244159	-0.4984131715263855	-0.3179318790989927	1.61906448484189	-0.4849062045933865	-0.32872567168242955	1.6242539627608854	-0.46079619397842975	-0.3203028429653124	1.6262374196862157	-0.509956452547329	-0.26146133376475567	1.8215278426444836	-0.619699100115556	-0.269917597437335	1.742320710375639	-0.5821164496136918	-0.27118388989216236	1.6182994564610922	-0.5877484261378323							-0.274741618302188	1.6111592653459756	-0.5965265814077707	-0.27869404890984084	1.9798146634149094	-0.596431808915585	-0.26720679721085094	2.0421671675668986	-0.5659175340596144	-0.302818903418608	1.972978657515521	-0.5073923893424267	-0.3341615443117958	1.924243982455714	-0.39156386183178465	-0.3455893954171991	1.9586931706271342	-0.3012510770466656	-0.25320915150304424	1.9874976344963473	-0.6808094006208726	-0.21249764993121323	1.9835510661286098	-0.8108562250023685	-0.20650971918799507	2.0474918755899036	-0.790980606845255
